<?xml version="1.0" standalone="no"?>
<!DOCTYPE svg PUBLIC "-//W3C//DTD SVG 20010904//EN"
 "http://www.w3.org/TR/2001/REC-SVG-20010904/DTD/svg10.dtd">
<svg version="1.0" xmlns="http://www.w3.org/2000/svg"
 width="560.000000pt" height="445.000000pt" viewBox="0 0 560.000000 445.000000"
 preserveAspectRatio="xMidYMid meet">

<g transform="translate(0.000000,445.000000) scale(0.100000,-0.100000)"
fill="#000000" stroke="none">
<path d="M2685 2954 c-54 -9 -159 -46 -225 -80 -215 -112 -370 -347 -387 -588
-6 -83 -6 -83 20 -88 13 -3 45 0 70 6 l44 10 7 65 c46 485 633 714 992 387
114 -104 176 -226 196 -387 11 -84 12 -88 31 -77 11 6 42 8 69 5 l50 -6 -7 77
c-17 193 -102 365 -243 493 -80 72 -154 115 -259 152 -76 26 -104 30 -208 33
-66 1 -133 0 -150 -2z"/>
<path d="M2790 1943 c-1 -46 -50 -119 -112 -163 -23 -17 -54 -49 -69 -72 -55
-82 -138 -124 -223 -112 -38 5 -59 15 -92 46 -40 37 -44 45 -44 87 0 42 -4 50
-40 81 -26 23 -42 46 -46 68 -8 39 -15 34 -38 -30 -9 -25 -24 -52 -33 -59 -9
-8 -49 -14 -103 -16 -85 -2 -89 -1 -126 28 -43 34 -63 64 -64 93 0 28 -14 10
-35 -47 -10 -26 -27 -54 -38 -62 -18 -13 -19 -17 -7 -47 7 -18 25 -53 39 -78
147 -263 365 -454 631 -553 157 -58 242 -72 430 -71 150 1 176 4 280 32 64 17
151 46 193 66 86 39 232 131 280 176 18 17 35 30 38 30 6 0 101 106 149 166
47 58 150 242 150 268 0 3 -10 6 -22 6 -27 0 -86 39 -94 63 -8 26 -22 20 -29
-13 -11 -51 -42 -63 -137 -56 -109 8 -104 8 -170 0 -45 -5 -63 -3 -83 10 -13
9 -29 16 -34 16 -22 0 -92 -56 -116 -94 -53 -82 -133 -122 -218 -111 -64 9
-137 74 -137 123 0 48 20 82 64 104 39 20 39 20 19 37 -22 17 -63 87 -63 108
0 9 -16 13 -50 13 l-50 0 0 -37z m-714 -227 c3 -14 18 -29 35 -36 37 -16 37
-38 1 -51 -15 -5 -32 -19 -37 -31 -15 -33 -32 -33 -49 0 -8 16 -24 32 -36 35
-28 7 -25 36 5 47 14 5 30 21 35 35 12 32 38 32 46 1z m1512 -1 c7 -14 23 -30
37 -35 14 -5 25 -16 25 -25 0 -9 -11 -20 -25 -25 -14 -5 -30 -21 -37 -35 -14
-32 -36 -32 -48 0 -5 14 -21 30 -35 35 -14 5 -25 16 -25 25 0 9 11 20 25 25
14 5 30 21 35 35 12 32 34 32 48 0z m-1204 -218 c3 -13 21 -30 41 -40 42 -20
41 -36 -3 -56 -18 -8 -35 -26 -41 -43 -13 -38 -43 -37 -58 2 -7 20 -22 34 -42
41 -41 14 -41 44 -1 57 17 7 35 23 42 39 7 15 17 31 22 35 14 9 33 -8 40 -35z
m910 9 c9 -22 24 -37 45 -44 17 -6 31 -18 31 -27 0 -9 -14 -21 -31 -27 -21 -7
-36 -22 -45 -44 -18 -43 -41 -43 -59 0 -10 22 -25 37 -45 44 -40 14 -38 38 4
56 22 9 37 24 44 45 14 41 38 39 56 -3z m-450 -113 c14 -40 29 -55 69 -69 21
-7 33 -18 35 -33 3 -17 -6 -25 -43 -42 -31 -14 -49 -29 -56 -47 -25 -73 -54
-78 -78 -13 -14 37 -22 46 -61 60 -61 22 -61 48 0 77 34 17 48 31 62 64 22 52
55 53 72 3z"/>
</g>
</svg>
